<?xml version="1.0" standalone="no"?><?xml-stylesheet type="text/css" href="https://www.processon.com/themes/default/mind/icons/icons.css" ?><!DOCTYPE svg PUBLIC "-//W3C//DTD SVG 1.1//EN" "http://www.w3.org/Graphics/SVG/1.1/DTD/svg11.dtd">
<svg xmlns="http://www.w3.org/2000/svg" version="1.1" xlink="http://www.w3.org/1999/xlink" id="mind-svg-con" width="1526.9957733154297px" height="893.0041809082031px" style="position: absolute; left: 0px; top: 0px; width: 1527px; height: 893.004px; z-index: 999;"><defs></defs><rect x="0" y="0" width="1526.9957733154297" height="893.0041809082031" fill="#f8f8f8"></rect><g id="c7741766f523"><rect x="303.9957733154297" y="777.1134033203125" rx="5px" ry="5px" width="162" height="43" style="fill: #ffffff; stroke:rgb(137,137,137);stroke-width:1px;"></rect><g><text y="780.76298828125" text-anchor="start" align="top" anchor="start" font-family="微软雅黑" font-size="17px" font-weight="normal" fill="rgb(68, 68, 68)"><tspan x="316.99156188964844" dy="23"><tspan>输入输出相关接口</tspan></tspan></text></g></g><g id="bae60006ee1a"><rect x="495.9705352783203" y="734.0041809082031" rx="1px" ry="1px" width="100" height="24" style="fill: #f8f8f8; stroke:none;"></rect><g><text y="732.1319091796875" text-anchor="start" align="top" anchor="start" font-family="微软雅黑" font-size="13px" font-weight="normal" fill="rgb(68, 68, 68)"><tspan x="501.9705352783203" dy="18"><tspan>mptcp_input.c</tspan></tspan></text></g></g><g id="b9c998221ac9"><rect x="495.9705352783203" y="766.0713806152344" rx="1px" ry="1px" width="110" height="24" style="fill: #f8f8f8; stroke:none;"></rect><g><text y="764.1991394042968" text-anchor="start" align="top" anchor="start" font-family="微软雅黑" font-size="13px" font-weight="normal" fill="rgb(68, 68, 68)"><tspan x="501.9705352783203" dy="18"><tspan>mptcp_output.c</tspan></tspan></text></g></g><g id="3533af5e8257"><rect x="495.9705352783203" y="802.5251770019531" rx="1px" ry="1px" width="94" height="24" style="fill: #f8f8f8; stroke:none;"></rect><g><text y="800.6529052734375" text-anchor="start" align="top" anchor="start" font-family="微软雅黑" font-size="13px" font-weight="normal" fill="rgb(68, 68, 68)"><tspan x="501.9705352783203" dy="18"><tspan>mptcp_ipv4.c</tspan></tspan></text></g></g><g id="925e990bcb9a"><rect x="627.7814483642578" y="798.1386108398438" rx="5px" ry="5px" width="298" height="33" style="fill: #ffffff; stroke:rgb(137,137,137);stroke-width:1px;"></rect><g><text y="796.7966186523438" text-anchor="start" align="top" anchor="start" font-family="微软雅黑" font-size="17px" font-weight="normal" fill="rgb(68, 68, 68)"><tspan x="634.7772979736328" dy="23"><tspan>struct inet_connection_sock_af_ops</tspan></tspan></text></g></g><g id="9c084c7ee442"><rect x="495.9705352783203" y="838.9789428710938" rx="1px" ry="1px" width="94" height="24" style="fill: #f8f8f8; stroke:none;"></rect><g><text y="837.1066711425781" text-anchor="start" align="top" anchor="start" font-family="微软雅黑" font-size="13px" font-weight="normal" fill="rgb(68, 68, 68)"><tspan x="501.9705352783203" dy="18"><tspan>mptcp_ipv6.c</tspan></tspan></text></g></g><g id="f1a6246da6ea"><rect x="303.9957733154297" y="626.7226715087891" rx="5px" ry="5px" width="128" height="43" style="fill: #ffffff; stroke:rgb(137,137,137);stroke-width:1px;"></rect><g><text y="630.3722412109375" text-anchor="start" align="top" anchor="start" font-family="微软雅黑" font-size="17px" font-weight="normal" fill="rgb(68, 68, 68)"><tspan x="316.99156188964844" dy="23"><tspan>拥塞控制算法</tspan></tspan></text></g></g><g id="9b2fbde1f4d9"><rect x="461.97474670410156" y="587.9999847412109" rx="1px" ry="1px" width="114" height="24" style="fill: #f8f8f8; stroke:none;"></rect><g><text y="586.1277130126953" text-anchor="start" align="top" anchor="start" font-family="微软雅黑" font-size="13px" font-weight="normal" fill="rgb(68, 68, 68)"><tspan x="467.97474670410156" dy="18"><tspan>mptcp_wvegas.c</tspan></tspan></text></g></g><g id="8bcf268c190b"><rect x="461.97474670410156" y="620.0671997070312" rx="1px" ry="1px" width="97" height="24" style="fill: #f8f8f8; stroke:none;"></rect><g><text y="618.1949279785156" text-anchor="start" align="top" anchor="start" font-family="微软雅黑" font-size="13px" font-weight="normal" fill="rgb(68, 68, 68)"><tspan x="467.97474670410156" dy="18"><tspan>mptcp_balia.c</tspan></tspan></text></g></g><g id="de61a6c20d64"><rect x="461.97474670410156" y="652.1344299316406" rx="1px" ry="1px" width="90" height="24" style="fill: #f8f8f8; stroke:none;"></rect><g><text y="650.262158203125" text-anchor="start" align="top" anchor="start" font-family="微软雅黑" font-size="13px" font-weight="normal" fill="rgb(68, 68, 68)"><tspan x="467.97474670410156" dy="18"><tspan>mptcp_olia.c</tspan></tspan></text></g></g><g id="71d9916a68dc"><rect x="461.97474670410156" y="684.20166015625" rx="1px" ry="1px" width="118" height="24" style="fill: #f8f8f8; stroke:none;"></rect><g><text y="682.3293884277343" text-anchor="start" align="top" anchor="start" font-family="微软雅黑" font-size="13px" font-weight="normal" fill="rgb(68, 68, 68)"><tspan x="467.97474670410156" dy="18"><tspan>mptcp_coupled.c</tspan></tspan></text></g></g><g id="b672dd25a4c4"><rect x="617.8108673095703" y="631.7142639160156" rx="5px" ry="5px" width="226" height="33" style="fill: #ffffff; stroke:rgb(137,137,137);stroke-width:1px;"></rect><g><text y="630.3722412109375" text-anchor="start" align="top" anchor="start" font-family="微软雅黑" font-size="17px" font-weight="normal" fill="rgb(68, 68, 68)"><tspan x="624.8066558837891" dy="23"><tspan>struct tcp_congestion_ops</tspan></tspan></text></g></g><g id="73a0ee3d2c42"><rect x="303.9957733154297" y="418.3991470336914" rx="5px" ry="5px" width="111" height="43" style="fill: #ffffff; stroke:rgb(137,137,137);stroke-width:1px;"></rect><g><text y="422.04872817993163" text-anchor="start" align="top" anchor="start" font-family="微软雅黑" font-size="17px" font-weight="normal" fill="rgb(68, 68, 68)"><tspan x="316.99156188964844" dy="23"><tspan>路径管理器</tspan></tspan></text></g></g><g id="cc7d087ce3f3"><rect x="444.98316955566406" y="317.99999237060547" rx="1px" ry="1px" width="168" height="40" style="fill: #f8f8f8; stroke:none;"></rect><g><text y="314.7915924072266" text-anchor="start" align="top" anchor="start" font-family="微软雅黑" font-size="13px" font-weight="normal" fill="rgb(68, 68, 68)"><tspan x="450.98316955566406" dy="18"><tspan>mptcp_pm.c</tspan></tspan><tspan x="450.98316955566406" dy="18"><tspan>路径管理器的注册管理接口</tspan></tspan></text></g></g><g id="88f42b00b1fc"><rect x="444.98316955566406" y="452.0167922973633" rx="1px" ry="1px" width="77" height="24" style="fill: #f8f8f8; stroke:none;"></rect><g><text y="450.14452056884767" text-anchor="start" align="top" anchor="start" font-family="微软雅黑" font-size="13px" font-weight="normal" fill="rgb(68, 68, 68)"><tspan x="450.98316955566406" dy="18"><tspan>管理器实体</tspan></tspan></text></g></g><g id="5eb2c039fe1f"><rect x="551.9747467041016" y="395.71007347106934" rx="6px" ry="6px" width="194" height="40" style="fill: rgb(255, 83, 92); stroke:rgb(255, 255, 255);stroke-width:0px;"></rect><g><text y="392.5016696929932" text-anchor="start" align="top" anchor="start" font-family="微软雅黑" font-size="13px" font-weight="normal" fill="rgb(255, 255, 255)"><tspan x="557.9747467041016" dy="18"><tspan>mptcp_fullmesh.c</tspan></tspan><tspan x="557.9747467041016" dy="18"><tspan>尝试在所有可用地址上建立子流</tspan></tspan></text></g></g><g id="11f35f710872"><rect x="551.9747467041016" y="444.18906021118164" rx="1px" ry="1px" width="108" height="24" style="fill: #f8f8f8; stroke:none;"></rect><g><text y="442.3167922973633" text-anchor="start" align="top" anchor="start" font-family="微软雅黑" font-size="13px" font-weight="normal" fill="rgb(68, 68, 68)"><tspan x="557.9747467041016" dy="18"><tspan>mptcp_binder.c</tspan></tspan></text></g></g><g id="5d503148bd53"><rect x="551.9747467041016" y="476.25628662109375" rx="1px" ry="1px" width="129" height="24" style="fill: #f8f8f8; stroke:none;"></rect><g><text y="474.38401489257814" text-anchor="start" align="top" anchor="start" font-family="微软雅黑" font-size="13px" font-weight="normal" fill="rgb(68, 68, 68)"><tspan x="557.9747467041016" dy="18"><tspan>mptcp_ndiffports.c</tspan></tspan></text></g></g><g id="c257f8a86b98"><rect x="551.9747467041016" y="508.3235092163086" rx="1px" ry="1px" width="110" height="24" style="fill: #f8f8f8; stroke:none;"></rect><g><text y="506.4512451171875" text-anchor="start" align="top" anchor="start" font-family="微软雅黑" font-size="13px" font-weight="normal" fill="rgb(68, 68, 68)"><tspan x="557.9747467041016" dy="18"><tspan>mptcp_netlink.c</tspan></tspan></text></g></g><g id="2d11f5728916"><rect x="783.9201202392578" y="366.47898292541504" rx="5px" ry="5px" width="713" height="195" style="fill: #ffffff; stroke:rgb(137,137,137);stroke-width:1px;"></rect><g><text y="363.6747800827026" text-anchor="start" align="top" anchor="start" font-family="微软雅黑" font-size="17px" font-weight="normal" fill="rgb(68, 68, 68)"><tspan x="790.9159088134766" dy="23"><tspan>struct mptcp_pm_ops</tspan></tspan><tspan x="790.9159088134766" dy="23"><tspan>fullmesh其余接口：</tspan></tspan><tspan x="790.9159088134766" dy="23"><tspan>//向mptcp-namespace注册pm</tspan></tspan><tspan x="790.9159088134766" dy="23"><tspan>struct pernet_operations</tspan></tspan><tspan x="790.9159088134766" dy="23"><tspan> </tspan></tspan><tspan x="790.9159088134766" dy="23"><tspan>full_mesh_net_ops</tspan></tspan><tspan x="790.9159088134766" dy="23"><tspan>//对地址通知事件，创建</tspan></tspan><tspan x="790.9159088134766" dy="23"><tspan>mptcp_addr_event，并向mptcp_wq</tspan></tspan><tspan x="790.9159088134766" dy="23"><tspan>入队延迟工作address_worker</tspan></tspan><tspan x="790.9159088134766" dy="23"><tspan>struct notifier_block</tspan></tspan><tspan x="790.9159088134766" dy="23"><tspan> </tspan></tspan><tspan x="790.9159088134766" dy="23"><tspan>mptcp_pm_inetaddr_notifier</tspan></tspan><tspan x="790.9159088134766" dy="23"><tspan>//对网卡通知事件，处理同上</tspan></tspan><tspan x="790.9159088134766" dy="23"><tspan>struct notifier_block</tspan></tspan><tspan x="790.9159088134766" dy="23"><tspan> </tspan></tspan><tspan x="790.9159088134766" dy="23"><tspan>mptcp_pm_netdev_notifier</tspan></tspan></text></g></g><g id="790ea27d6089"><rect x="303.9957733154297" y="186.34033203125" rx="5px" ry="5px" width="111" height="43" style="fill: #ffffff; stroke:rgb(137,137,137);stroke-width:1px;"></rect><g><text y="189.9899169921875" text-anchor="start" align="top" anchor="start" font-family="微软雅黑" font-size="17px" font-weight="normal" fill="rgb(68, 68, 68)"><tspan x="316.99156188964844" dy="23"><tspan>流量调度器</tspan></tspan></text></g></g><g id="9b0531bd21ae"><rect x="444.98316955566406" y="123" rx="6px" ry="6px" width="111" height="40" style="fill: rgb(255, 83, 92); stroke:rgb(255, 255, 255);stroke-width:0px;"></rect><g><text y="119.79160766601562" text-anchor="start" align="top" anchor="start" font-family="微软雅黑" font-size="13px" font-weight="normal" fill="rgb(255, 255, 255)"><tspan x="450.98316955566406" dy="18"><tspan>mptcp_sched.c</tspan></tspan><tspan x="450.98316955566406" dy="18"><tspan>最小srtt子流优先</tspan></tspan></text></g></g><g id="33b1a4021ce0"><rect x="444.98316955566406" y="171.47898864746094" rx="1px" ry="1px" width="77" height="40" style="fill: #f8f8f8; stroke:none;"></rect><g><text y="168.27059631347657" text-anchor="start" align="top" anchor="start" font-family="微软雅黑" font-size="13px" font-weight="normal" fill="rgb(68, 68, 68)"><tspan x="450.98316955566406" dy="18"><tspan>mptcp_rr.c</tspan></tspan><tspan x="450.98316955566406" dy="18"><tspan>轮询</tspan></tspan></text></g></g><g id="4fdf578ad5ba"><rect x="444.98316955566406" y="219.95797729492188" rx="1px" ry="1px" width="132" height="40" style="fill: #f8f8f8; stroke:none;"></rect><g><text y="216.7495849609375" text-anchor="start" align="top" anchor="start" font-family="微软雅黑" font-size="13px" font-weight="normal" fill="rgb(68, 68, 68)"><tspan x="450.98316955566406" dy="18"><tspan>mptcp_redundant.c</tspan></tspan><tspan x="450.98316955566406" dy="18"><tspan>所有子流冗余发送</tspan></tspan></text></g></g><g id="947b7f7f4d78"><rect x="444.98316955566406" y="268.43697357177734" rx="1px" ry="1px" width="98" height="24" style="fill: #f8f8f8; stroke:none;"></rect><g><text y="266.56470184326173" text-anchor="start" align="top" anchor="start" font-family="微软雅黑" font-size="13px" font-weight="normal" fill="rgb(68, 68, 68)"><tspan x="450.98316955566406" dy="18"><tspan>mptcp_blest.c</tspan></tspan></text></g></g><g id="93ff4524f1d7"><rect x="615.6049957275391" y="191.33193969726562" rx="5px" ry="5px" width="210" height="33" style="fill: #ffffff; stroke:rgb(137,137,137);stroke-width:1px;"></rect><g><text y="189.9899169921875" text-anchor="start" align="top" anchor="start" font-family="微软雅黑" font-size="17px" font-weight="normal" fill="rgb(68, 68, 68)"><tspan x="622.6007843017578" dy="23"><tspan>struct mptcp_sched_ops</tspan></tspan></text></g></g><g id="32373da43a91"><rect x="303.9957733154297" y="30" rx="6px" ry="6px" width="490" height="67" style="fill: rgb(255, 255, 255); stroke:rgb(67, 75, 84);stroke-width:1.9916px;"></rect><g><text y="33.18321533203125" text-anchor="start" align="top" anchor="start" font-family="微软雅黑" font-size="17px" font-weight="normal" fill="rgb(67, 75, 84)"><tspan x="317.9873809814453" dy="23"><tspan>mptcp_ctrl.c</tspan></tspan><tspan x="317.9873809814453" dy="23"><tspan>整合mptcp各模块，完成mptcp协议的</tspan></tspan><tspan x="317.9873809814453" dy="23"><tspan>初始化，各模块的注册</tspan></tspan></text></g></g><g transform="translate(303.9957733154297, 734.0041809082031)" id="sdjakdjak0"><g id="subline_c7741766f523" transform="translate(0.5,-0.5)"><path id="line_bae60006ee1a" d="M 162 65 L 178 65 C 186 65 171.97479248046875 12 191.97479248046875 12" p="c7741766f523" stroke="rgb(130,130,130)" stroke-linecap="round" fill="none" stroke-width="1"></path><path id="line_b9c998221ac9" d="M 162 65 L 178 65 C 186 65 171.97479248046875 44 191.97479248046875 44" p="c7741766f523" stroke="rgb(130,130,130)" stroke-linecap="round" fill="none" stroke-width="1"></path><path id="line_3533af5e8257" d="M 162 65 L 178 65 C 186 65 171.97479248046875 80 191.97479248046875 80" p="c7741766f523" stroke="rgb(130,130,130)" stroke-linecap="round" fill="none" stroke-width="1"></path><path id="line_9c084c7ee442" d="M 162 65 L 178 65 C 186 65 171.97479248046875 116 191.97479248046875 116" p="c7741766f523" stroke="rgb(130,130,130)" stroke-linecap="round" fill="none" stroke-width="1"></path></g><g transform="translate(0.5,0)"></g><g class="svg-summary-con" transform="translate(0.5,0.5)"><path id="sum_925e990bcb9a" fill="none" stroke="#bf1e1b" stroke-width="1" d=" M 301 72 L 311 72 L 311 92 L 301 92 M 311 82 L 321 82" stroke-linecap="round"></path></g></g><g transform="translate(303.9957733154297, 587.9999847412109)" id="sdjakdjak1"><g id="subline_f1a6246da6ea" transform="translate(0.5,-0.5)"><path id="line_9b2fbde1f4d9" d="M 128 60 L 144 60 C 152 60 137.97897338867188 12 157.97897338867188 12" p="f1a6246da6ea" stroke="rgb(130,130,130)" stroke-linecap="round" fill="none" stroke-width="1"></path><path id="line_8bcf268c190b" d="M 128 60 L 144 60 C 152 60 137.97897338867188 44 157.97897338867188 44" p="f1a6246da6ea" stroke="rgb(130,130,130)" stroke-linecap="round" fill="none" stroke-width="1"></path><path id="line_de61a6c20d64" d="M 128 60 L 144 60 C 152 60 137.97897338867188 76 157.97897338867188 76" p="f1a6246da6ea" stroke="rgb(130,130,130)" stroke-linecap="round" fill="none" stroke-width="1"></path><path id="line_71d9916a68dc" d="M 128 60 L 144 60 C 152 60 137.97897338867188 108 157.97897338867188 108" p="f1a6246da6ea" stroke="rgb(130,130,130)" stroke-linecap="round" fill="none" stroke-width="1"></path></g><g transform="translate(0.5,0)"></g><g class="svg-summary-con" transform="translate(0.5,0.5)"><path id="sum_b672dd25a4c4" stroke="#bf1e1b" fill="none" stroke-width="1" d=" M 291 4 L 301 4 L 301 116 L 291 116 M 301 60 L 311 60" stroke-linecap="round"></path></g></g><g transform="translate(303.9957733154297, 317.99999237060547)" id="sdjakdjak2"><g id="subline_73a0ee3d2c42" transform="translate(0.5,-0.5)"><path id="line_cc7d087ce3f3" d="M 111 122 L 127 122 C 135 122 120.98739624023438 20 140.98739624023438 20" p="73a0ee3d2c42" stroke="rgb(130,130,130)" stroke-linecap="round" fill="none" stroke-width="1"></path><path id="line_88f42b00b1fc" d="M 111 122 L 127 122 C 135 122 120.98739624023438 146 140.98739624023438 146" p="73a0ee3d2c42" stroke="rgb(130,130,130)" stroke-linecap="round" fill="none" stroke-width="1"></path><path id="line_5eb2c039fe1f" d="M 217.98739624023438 146 L 233.98739624023438 146 C 241.98739624023438 146 227.97897338867188 97 247.97897338867188 97" p="88f42b00b1fc" stroke="rgb(130,130,130)" stroke-linecap="round" fill="none" stroke-width="1"></path><path id="line_11f35f710872" d="M 217.98739624023438 146 L 233.98739624023438 146 C 241.98739624023438 146 227.97897338867188 138 247.97897338867188 138" p="88f42b00b1fc" stroke="rgb(130,130,130)" stroke-linecap="round" fill="none" stroke-width="1"></path><path id="line_5d503148bd53" d="M 217.98739624023438 146 L 233.98739624023438 146 C 241.98739624023438 146 227.97897338867188 170 247.97897338867188 170" p="88f42b00b1fc" stroke="rgb(130,130,130)" stroke-linecap="round" fill="none" stroke-width="1"></path><path id="line_c257f8a86b98" d="M 217.98739624023438 146 L 233.98739624023438 146 C 241.98739624023438 146 227.97897338867188 202 247.97897338867188 202" p="88f42b00b1fc" stroke="rgb(130,130,130)" stroke-linecap="round" fill="none" stroke-width="1"></path></g><g transform="translate(0.5,0)"></g><g class="svg-summary-con" transform="translate(0.5,0.5)"><path id="sum_2d11f5728916" stroke="#bf1e1b" fill="none" stroke-width="1" d=" M 457 81 L 467 81 L 467 210 L 457 210 M 467 145 L 477 145" stroke-linecap="round"></path></g></g><g transform="translate(303.9957733154297, 123)" id="sdjakdjak3"><g id="subline_790ea27d6089" transform="translate(0.5,-0.5)"><path id="line_9b0531bd21ae" d="M 111 85 L 127 85 C 135 85 120.98739624023438 20 140.98739624023438 20" p="790ea27d6089" stroke="rgb(130,130,130)" stroke-linecap="round" fill="none" stroke-width="1"></path><path id="line_33b1a4021ce0" d="M 111 85 L 127 85 C 135 85 120.98739624023438 68 140.98739624023438 68" p="790ea27d6089" stroke="rgb(130,130,130)" stroke-linecap="round" fill="none" stroke-width="1"></path><path id="line_4fdf578ad5ba" d="M 111 85 L 127 85 C 135 85 120.98739624023438 116 140.98739624023438 116" p="790ea27d6089" stroke="rgb(130,130,130)" stroke-linecap="round" fill="none" stroke-width="1"></path><path id="line_947b7f7f4d78" d="M 111 85 L 127 85 C 135 85 120.98739624023438 157 140.98739624023438 157" p="790ea27d6089" stroke="rgb(130,130,130)" stroke-linecap="round" fill="none" stroke-width="1"></path></g><g transform="translate(0.5,0)"></g><g class="svg-summary-con" transform="translate(0.5,0.5)"><path id="sum_93ff4524f1d7" stroke="#bf1e1b" fill="none" stroke-width="1" d=" M 289 4 L 299 4 L 299 165 L 289 165 M 299 84 L 309 84" stroke-linecap="round"></path></g></g><g transform="translate(303.9957733154297, 30)" id="sdjakdjak4"><g id="subline_32373da43a91" transform="translate(0.5,-0.5)"></g><g transform="translate(0.5,0)"></g><g class="svg-summary-con" transform="translate(0.5,0.5)"></g></g><g transform="translate(30, 413.9999885559082)" id="sdjakdjak5"><g id="subline_root" transform="translate(0.5,-0.5)"></g><g transform="translate(0.5,0)"></g><g class="svg-summary-con" transform="translate(0.5,0.5)"></g></g><g transform="translate(-9862.499374389648, -9490.990966796875)" id="sdjakdjak6"><defs></defs><g class="svg-topic-con" transform="translate(0.5,0.5)"><path part="right" sub="true" id="line_32373da43a91" d="M 9999.499156951904 9937.490955352783 C 9999.499156951904 9937.490955352783 10009.499156951904 9554.5 10166.499156951904 9554.5" stroke="rgb(130,130,130)" fill="none" stroke-width="2"></path><path part="right" sub="true" id="line_790ea27d6089" d="M 9999.499156951904 9937.490955352783 C 9999.499156951904 9937.490955352783 10009.499156951904 9698.5 10166.499156951904 9698.5" stroke="rgb(130,130,130)" fill="none" stroke-width="2"></path><path part="right" sub="true" id="line_73a0ee3d2c42" d="M 9999.499156951904 9937.490955352783 C 9999.499156951904 9937.490955352783 10009.499156951904 9931 10166.499156951904 9931" stroke="rgb(130,130,130)" fill="none" stroke-width="2"></path><path part="right" sub="true" id="line_f1a6246da6ea" d="M 9999.499156951904 9937.490955352783 C 9999.499156951904 9937.490955352783 10009.499156951904 10139 10166.499156951904 10139" stroke="rgb(130,130,130)" fill="none" stroke-width="2"></path><path part="right" sub="true" id="line_c7741766f523" d="M 9999.499156951904 9937.490955352783 C 9999.499156951904 9937.490955352783 10009.499156951904 10289.5 10166.499156951904 10289.5" stroke="rgb(130,130,130)" fill="none" stroke-width="2"></path></g><g class="svg-connection-con" transform="translate(0.5,0.5)"><g id="line_4bcd667688e5" class="connection-svg"><path fill="none" d="M 10583.104187011719 9715.32290649414L 10931.619250488282 9857.46994972229" class="connection-line" stroke-linejoin="round" stroke="rgb(113, 203, 45)" stroke-width="1"></path><path class="connection-end-arrow" fill="rgb(113, 203, 45)" stroke="rgb(113, 203, 45)" stroke-width="1" d="M10931.619250488282 9857.46994972229 L10921.712037075971 9858.829038535769 M10931.619250488282 9857.46994972229 L10925.488638343655 9849.569595633255 Z"></path></g><g id="line_f5e382b571be" class="connection-svg"><path fill="none" d="M 10593.31005859375 10155.70523071289L 10639.280639648438 10289.129577636719" class="connection-line" stroke-linejoin="round" stroke="rgb(113, 203, 45)" stroke-width="1"></path><path class="connection-end-arrow" fill="rgb(113, 203, 45)" stroke="rgb(113, 203, 45)" stroke-width="1" d="M10639.280639648438 10289.129577636719 L10631.73227391508 10282.57044852109 M10639.280639648438 10289.129577636719 L10641.186829222595 10279.312936596762 Z"></path></g></g></g><g><rect x="784.4936676025391" y="271.95298767089844" rx="5" ry="5" width="215" height="46" fill="rgb(113, 203, 45)"></rect><g><text y="271.75298767089845" text-anchor="start" align="top" anchor="start" font-family="Helvetica" font-size="13px" font-weight="" fill="rgb(255, 255, 255)"><tspan x="792.4936676025391" dy="18"><tspan style="color: rgb(50, 50, 50); font-family: 微软雅黑; font-weight: 700; text-align: center; background-color: rgba(255, 255, 255, 0.01);">struct mptcp_cb //mptcp控制</tspan></tspan><tspan x="792.4936676025391" dy="18"><tspan style="color: rgb(50, 50, 50); font-family: 微软雅黑; font-weight: 700; text-align: center; background-color: rgba(255, 255, 255, 0.01);">块</tspan></tspan></text></g></g><g><rect x="643.4306182861328" y="707.9739685058594" rx="5" ry="5" width="216" height="45" fill="rgb(113, 203, 45)"></rect><g><text y="707.7739685058593" text-anchor="start" align="top" anchor="start" font-family="Helvetica" font-size="13px" font-weight="" fill="rgb(255, 255, 255)"><tspan x="651.4306182861328" dy="18"><tspan style="color: rgb(50, 50, 50); font-family: 微软雅黑; font-weight: 700; text-align: center; background-color: rgba(255, 255, 255, 0.01);">struct inet_connection_sock //</tspan></tspan><tspan x="651.4306182861328" dy="18"><tspan style="color: rgb(50, 50, 50); font-family: 微软雅黑; font-weight: 700; text-align: center; background-color: rgba(255, 255, 255, 0.01);">连接控制sock</tspan></tspan></text></g></g><g id="root"><rect x="30" y="413.9999885559082" rx="5px" ry="5px" width="215" height="65" style="fill: #50C28B; stroke:none;"></rect><g><text y="419.84788665771487" text-anchor="start" align="top" anchor="start" font-family="微软雅黑" font-size="26px" font-weight="normal" fill="rgb(255, 255, 255)"><tspan x="45" dy="36"><tspan>mptcp文件组织</tspan></tspan></text></g></g><g></g></svg>
